<?xml version="1.0" encoding="UTF-8"?>
<svg xmlns="http://www.w3.org/2000/svg" viewBox="0 0 512 512" fill="currentColor">
  <defs>
    <linearGradient id="gold-gradient" x1="0%" y1="0%" x2="100%" y2="100%">
      <stop offset="0%" style="stop-color:#D4AF37;stop-opacity:1" />
      <stop offset="50%" style="stop-color:#F5D165;stop-opacity:1" />
      <stop offset="100%" style="stop-color:#D4AF37;stop-opacity:1" />
    </linearGradient>
    <radialGradient id="case-gradient" cx="50%" cy="50%" r="65%" fx="35%" fy="30%">
      <stop offset="0%" style="stop-color:#F5D165;stop-opacity:1" />
      <stop offset="100%" style="stop-color:#D4AF37;stop-opacity:1" />
    </radialGradient>
  </defs>
  <g>
    <!-- Charging case -->
    <rect x="136" y="256" width="240" height="140" rx="70" ry="70" fill="url(#case-gradient)" />
    <rect x="136" y="256" width="240" height="70" fill="url(#case-gradient)" />
    <path d="M136 326c0-38.66 53.73-70 120-70s120 31.34 120 70" fill="none" stroke="url(#gold-gradient)" stroke-width="2" />
    
    <!-- Case lid (slightly open) -->
    <path d="M136 256c0-38.66 53.73-70 120-70s120 31.34 120 70" fill="none" stroke="url(#gold-gradient)" stroke-width="2" />
    <ellipse cx="256" cy="256" rx="120" ry="30" fill="url(#case-gradient)" />
    
    <!-- Left earbud -->
    <g transform="translate(-60, -40)">
      <ellipse cx="256" cy="256" rx="24" ry="36" fill="url(#gold-gradient)" />
      <circle cx="256" cy="236" r="8" fill="#222" />
      <path d="M238 256c0 0 10 24 36 24" fill="none" stroke="url(#gold-gradient)" stroke-width="2" />
      <circle cx="256" cy="280" r="4" fill="#222" />
    </g>
    
    <!-- Right earbud -->
    <g transform="translate(60, -40)">
      <ellipse cx="256" cy="256" rx="24" ry="36" fill="url(#gold-gradient)" />
      <circle cx="256" cy="236" r="8" fill="#222" />
      <path d="M274 256c0 0-10 24-36 24" fill="none" stroke="url(#gold-gradient)" stroke-width="2" />
      <circle cx="256" cy="280" r="4" fill="#222" />
    </g>
    
    <!-- Case details -->
    <rect x="246" y="326" width="20" height="4" rx="2" ry="2" fill="#222" />
    <circle cx="256" cy="356" r="8" fill="#222" />
  </g>
</svg>