<?xml version="1.0" encoding="UTF-8"?>
<svg xmlns="http://www.w3.org/2000/svg" viewBox="0 0 512 512" fill="currentColor">
  <defs>
    <linearGradient id="gold-gradient" x1="0%" y1="0%" x2="100%" y2="100%">
      <stop offset="0%" style="stop-color:#D4AF37;stop-opacity:1" />
      <stop offset="50%" style="stop-color:#F5D165;stop-opacity:1" />
      <stop offset="100%" style="stop-color:#D4AF37;stop-opacity:1" />
    </linearGradient>
    <linearGradient id="screen-gradient" x1="0%" y1="0%" x2="100%" y2="100%">
      <stop offset="0%" style="stop-color:#1a1a1a;stop-opacity:1" />
      <stop offset="100%" style="stop-color:#3a3a3a;stop-opacity:1" />
    </linearGradient>
  </defs>
  <g>
    <!-- Display base -->
    <ellipse cx="256" cy="400" rx="112" ry="16" fill="url(#gold-gradient)" opacity="0.8" />
    <path d="M176 400v-32c0-8.84 7.16-16 16-16h128c8.84 0 16 7.16 16 16v32" fill="url(#gold-gradient)" />
    
    <!-- Stand -->
    <path d="M256 352c-32 0-16-112-16-112h32c0 0 16 112-16 112z" fill="url(#gold-gradient)" />
    
    <!-- Main display frame -->
    <rect x="96" y="96" width="320" height="240" rx="16" ry="16" fill="url(#gold-gradient)" />
    
    <!-- Screen -->
    <rect x="112" y="112" width="288" height="208" rx="8" ry="8" fill="url(#screen-gradient)" />
    
    <!-- Screen content -->
    <circle cx="160" cy="160" r="32" fill="url(#gold-gradient)" opacity="0.3" />
    <rect x="208" y="144" width="160" height="8" rx="4" ry="4" fill="url(#gold-gradient)" opacity="0.3" />
    <rect x="208" y="160" width="144" height="8" rx="4" ry="4" fill="url(#gold-gradient)" opacity="0.3" />
    <rect x="208" y="176" width="128" height="8" rx="4" ry="4" fill="url(#gold-gradient)" opacity="0.3" />
    
    <rect x="140" y="208" width="232" height="80" rx="4" ry="4" fill="url(#gold-gradient)" opacity="0.15" />
    <path d="M144 216h224M144 236h224M144 256h224M144 276h224" stroke="url(#gold-gradient)" stroke-width="1" opacity="0.3" />
    
    <!-- Controls -->
    <circle cx="256" cy="340" r="8" fill="url(#gold-gradient)" />
    <circle cx="192" cy="328" r="4" fill="url(#gold-gradient)" opacity="0.6" />
    <circle cx="320" cy="328" r="4" fill="url(#gold-gradient)" opacity="0.6" />
  </g>
</svg>