<?xml version="1.0" encoding="UTF-8"?>
<svg xmlns="http://www.w3.org/2000/svg" viewBox="0 0 512 512" fill="currentColor">
  <defs>
    <linearGradient id="gold-gradient" x1="0%" y1="0%" x2="100%" y2="100%">
      <stop offset="0%" style="stop-color:#D4AF37;stop-opacity:1" />
      <stop offset="50%" style="stop-color:#F5D165;stop-opacity:1" />
      <stop offset="100%" style="stop-color:#D4AF37;stop-opacity:1" />
    </linearGradient>
    <linearGradient id="screen-gradient" x1="0%" y1="0%" x2="100%" y2="100%">
      <stop offset="0%" style="stop-color:#222;stop-opacity:1" />
      <stop offset="100%" style="stop-color:#444;stop-opacity:1" />
    </linearGradient>
  </defs>
  <g>
    <!-- Watch strap top -->
    <path d="M208 64c0-8.84 7.16-16 16-16h64c8.84 0 16 7.16 16 16v48h-96V64z" fill="url(#gold-gradient)" />
    
    <!-- Watch body -->
    <rect x="144" y="112" width="224" height="288" rx="32" ry="32" fill="url(#gold-gradient)" />
    
    <!-- Watch screen -->
    <rect x="164" y="132" width="184" height="248" rx="16" ry="16" fill="url(#screen-gradient)" />
    
    <!-- Watch strap bottom -->
    <path d="M208 400v48c0 8.84 7.16 16 16 16h64c8.84 0 16-7.16 16-16v-48h-96z" fill="url(#gold-gradient)" />
    
    <!-- Screen elements -->
    <circle cx="256" cy="160" r="8" fill="url(#gold-gradient)" />
    <line x1="216" y1="190" x2="296" y2="190" stroke="url(#gold-gradient)" stroke-width="4" />
    <line x1="216" y1="210" x2="296" y2="210" stroke="url(#gold-gradient)" stroke-width="4" />
    <circle cx="256" cy="256" r="40" stroke="url(#gold-gradient)" stroke-width="4" fill="none" />
    <circle cx="256" cy="256" r="4" fill="url(#gold-gradient)" />
    <line x1="256" y1="226" x2="256" y2="246" stroke="url(#gold-gradient)" stroke-width="2" />
    <line x1="256" y1="256" x2="276" y2="256" stroke="url(#gold-gradient)" stroke-width="2" />
    
    <!-- Side button -->
    <rect x="332" y="230" width="16" height="52" rx="8" ry="8" fill="url(#gold-gradient)" />
  </g>
</svg>